<svg width="71" height="72" viewBox="0 0 71 72" fill="none" xmlns="http://www.w3.org/2000/svg">
<path d="M58.4157 63.051C57.2455 61.8565 57.265 59.9377 58.4604 58.7676C63.8138 53.5233 65.7024 45.8404 63.3883 38.7191C61.8492 33.9821 58.3582 30.0471 54.0777 27.6494C54.0767 27.6494 54.0709 27.6455 54.0699 27.6455C50.4397 25.6079 46.241 24.6841 42.1785 25.312C40.691 25.5408 39.2882 24.6442 38.8375 23.2569C38.7878 23.1031 38.7479 22.9435 38.7236 22.7799C38.4675 21.1259 39.6026 19.579 41.2556 19.323C46.9896 18.439 53.0302 19.7747 58.2667 23.0827C63.4701 26.3683 67.334 31.2572 69.1505 36.8471C70.6536 41.4722 70.8143 46.3982 69.6159 51.0915C68.4496 55.6533 66.0597 59.8043 62.7001 63.0958C62.6134 63.1814 62.5209 63.2603 62.4275 63.3343C61.2291 64.2572 59.5021 64.1588 58.4166 63.051H58.4157Z" fill="url(#paint0_linear_440_486)"/>
<path d="M58.4161 63.0509C57.2459 61.8564 57.2654 59.9376 58.4609 58.7674C63.8142 53.5231 65.7028 45.8402 63.3888 38.719C61.8496 33.9819 58.3586 30.047 54.0781 27.6493C60.4351 29.6352 75.3288 45.2843 62.4269 63.3342C61.2285 64.257 59.5015 64.1587 58.4161 63.0509Z" fill="url(#paint1_linear_440_486)"/>
<path d="M68.9082 24.4849C67.41 25.2286 65.5915 24.6163 64.8477 23.1191C61.5144 16.4067 54.7914 12.2372 47.3032 12.2372C42.3217 12.2372 37.5009 14.3409 33.898 17.6713C33.898 17.6713 33.8921 17.6762 33.8921 17.6771C30.8324 20.5003 28.6566 24.2084 27.9976 28.265C27.7552 29.7506 26.4691 30.8078 25.0108 30.8078C24.8492 30.8078 24.6857 30.7961 24.5212 30.7689C22.8691 30.5012 21.7476 28.9436 22.0163 27.2935C22.948 21.5673 26.0846 16.2344 30.849 12.2771C35.5821 8.34413 41.4251 6.18002 47.3032 6.18002C52.1659 6.18002 56.901 7.54877 60.9946 10.1393C64.9733 12.6577 68.183 16.214 70.2741 20.4263C70.3286 20.5354 70.3753 20.6473 70.4162 20.7593C70.9234 22.1845 70.2965 23.7956 68.9073 24.4868L68.9082 24.4849Z" fill="url(#paint2_linear_440_486)"/>
<path d="M68.9087 24.4847C67.4105 25.2285 65.5919 24.6162 64.8482 23.1189C61.5149 16.4066 54.7919 12.237 47.3036 12.237C42.3222 12.237 37.5014 14.3408 33.8984 17.6712C37.7516 12.239 57.2373 2.91084 70.4167 20.7582C70.9239 22.1834 70.2969 23.7945 68.9077 24.4857L68.9087 24.4847Z" fill="url(#paint3_linear_440_486)"/>
<path d="M35.4688 2.58859C35.7131 4.24258 34.5692 5.78364 32.9153 6.02799C25.501 7.12416 19.4585 12.2292 17.1444 19.3504C15.6053 24.0875 16.1164 29.3231 18.1705 33.7788C18.1705 33.7788 18.1734 33.7856 18.1744 33.7866C19.9141 37.5687 22.7674 40.7842 26.4229 42.664C27.7615 43.3532 28.369 44.9031 27.9182 46.2903C27.8686 46.4441 27.8063 46.596 27.7294 46.743C26.9642 48.2315 25.1369 48.8166 23.6494 48.0514C18.4908 45.3957 14.3884 40.7647 12.0978 35.0103C9.81976 29.2939 9.56665 23.0673 11.3832 17.4774C12.8863 12.8523 15.6511 8.77231 19.3796 5.67948C23.005 2.67426 27.3779 0.720431 32.0303 0.0331344C32.1511 0.0146377 32.2718 0.00490265 32.3915 0.00100862C33.9034 -0.0408522 35.2429 1.05337 35.4697 2.58762L35.4688 2.58859Z" fill="url(#paint4_linear_440_486)"/>
<path d="M35.4673 2.58859C35.7117 4.24258 34.5678 5.78365 32.9138 6.028C25.4996 7.12417 19.457 12.2292 17.143 19.3504C15.6039 24.0875 16.115 29.3231 18.1691 33.7788C14.1923 28.4362 11.3429 7.02098 32.3891 0.00198519C33.901 -0.0398756 35.2405 1.05435 35.4673 2.58859Z" fill="url(#paint5_linear_440_486)"/>
<path d="M4.31163 27.6233C5.96075 27.9017 7.07249 29.4662 6.79407 31.1153C5.54506 38.5052 8.53372 45.8298 14.5919 50.2311C18.6222 53.1594 23.7584 54.2906 28.6308 53.7143C28.6318 53.7143 28.6386 53.7143 28.6396 53.7143C32.7741 53.2285 36.7138 51.5083 39.6314 48.6131C40.7004 47.5539 42.3621 47.4537 43.542 48.3113C43.6735 48.4067 43.7981 48.5128 43.9149 48.6306C45.0938 49.8183 45.086 51.7371 43.8983 52.915C39.7785 56.9999 34.1068 59.4706 27.926 59.8717C21.7851 60.2718 15.7864 58.5886 11.0308 55.1337C7.09683 52.2754 4.07116 48.3843 2.28088 43.8828C0.542199 39.5069 0.0359807 34.7435 0.819654 30.1067C0.840098 29.986 0.867352 29.8682 0.900451 29.7533C1.32782 28.3018 2.78225 27.3673 4.31163 27.6243V27.6233Z" fill="url(#paint6_linear_440_486)"/>
<path d="M4.31254 27.6233C5.96167 27.9017 7.07341 29.4662 6.79499 31.1153C5.54598 38.5052 8.53464 45.8298 14.5928 50.2311C18.6231 53.1594 23.7593 54.2906 28.6317 53.7143C22.3215 55.8443 1.07465 51.9376 0.902344 29.7524C1.32971 28.3009 2.78413 27.3663 4.31351 27.6233H4.31254Z" fill="url(#paint7_linear_440_486)"/>
<path d="M18.4932 64.9915C19.2681 63.5098 21.0993 62.9354 22.581 63.7104C29.2232 67.1819 37.1125 66.6026 43.1706 62.2014C47.201 59.2731 49.8645 54.7385 50.8214 49.9255C50.8214 49.9245 50.8234 49.9187 50.8234 49.9167C51.6392 45.8348 51.2206 41.5562 49.368 37.8861C48.6904 36.5417 49.11 34.9306 50.2899 34.0739C50.4213 33.9785 50.5605 33.8918 50.7085 33.8178C52.2028 33.0634 54.0243 33.664 54.7778 35.1574C57.3897 40.3374 57.9874 46.4958 56.458 52.4975C54.9413 58.4612 51.4863 63.6471 46.7308 67.1021C42.7968 69.9603 38.161 71.6357 33.3275 71.9472C28.6284 72.248 23.9419 71.258 19.7743 69.0793C19.6663 69.0228 19.5621 68.9605 19.4638 68.8933C18.2158 68.0386 17.7757 66.3661 18.4932 64.9915Z" fill="url(#paint8_linear_440_486)"/>
<path d="M18.4932 64.9915C19.2681 63.5098 21.0993 62.9354 22.581 63.7104C29.2232 67.1819 37.1125 66.6026 43.1706 62.2014C47.201 59.2731 49.8645 54.7385 50.8214 49.9255C50.8974 56.5853 40.6162 75.5852 19.4638 68.8933C18.2158 68.0386 17.7757 66.3661 18.4932 64.9915Z" fill="url(#paint9_linear_440_486)"/>
<defs>
<linearGradient id="paint0_linear_440_486" x1="38.6875" y1="41.5092" x2="70.4083" y2="41.5092" gradientUnits="userSpaceOnUse">
<stop stop-color="#F5F5F5"/>
<stop offset="1" stop-color="#CCCCCC"/>
</linearGradient>
<linearGradient id="paint1_linear_440_486" x1="54.1752" y1="27.6172" x2="65.5138" y2="62.5138" gradientUnits="userSpaceOnUse">
<stop stop-color="#1E4F3B"/>
<stop offset="1" stop-color="#06CF82"/>
</linearGradient>
<linearGradient id="paint2_linear_440_486" x1="42.3247" y1="36.5908" x2="52.127" y2="6.42252" gradientUnits="userSpaceOnUse">
<stop stop-color="#F5F5F5"/>
<stop offset="1" stop-color="#CCCCCC"/>
</linearGradient>
<linearGradient id="paint3_linear_440_486" x1="33.8984" y1="17.568" x2="70.5909" y2="17.568" gradientUnits="userSpaceOnUse">
<stop stop-color="#1E4F3B"/>
<stop offset="1" stop-color="#06CF82"/>
</linearGradient>
<linearGradient id="paint4_linear_440_486" x1="38.7674" y1="31.6126" x2="13.1039" y2="12.9671" gradientUnits="userSpaceOnUse">
<stop stop-color="#F5F5F5"/>
<stop offset="1" stop-color="#CCCCCC"/>
</linearGradient>
<linearGradient id="paint5_linear_440_486" x1="18.0708" y1="33.7477" x2="29.4094" y2="-1.14894" gradientUnits="userSpaceOnUse">
<stop stop-color="#1E4F3B"/>
<stop offset="1" stop-color="#06CF82"/>
</linearGradient>
<linearGradient id="paint6_linear_440_486" x1="32.9343" y1="33.4549" x2="7.2709" y2="52.1005" gradientUnits="userSpaceOnUse">
<stop stop-color="#F5F5F5"/>
<stop offset="1" stop-color="#CCCCCC"/>
</linearGradient>
<linearGradient id="paint7_linear_440_486" x1="28.5704" y1="53.7964" x2="-1.11442" y2="32.2291" gradientUnits="userSpaceOnUse">
<stop stop-color="#1E4F3B"/>
<stop offset="1" stop-color="#06CF82"/>
</linearGradient>
<linearGradient id="paint8_linear_440_486" x1="32.8849" y1="39.5718" x2="42.6871" y2="69.7401" gradientUnits="userSpaceOnUse">
<stop stop-color="#F5F5F5"/>
<stop offset="1" stop-color="#CCCCCC"/>
</linearGradient>
<linearGradient id="paint9_linear_440_486" x1="50.8818" y1="50.0085" x2="21.1969" y2="71.5758" gradientUnits="userSpaceOnUse">
<stop stop-color="#1E4F3B"/>
<stop offset="1" stop-color="#06CF82"/>
</linearGradient>
</defs>
</svg>
